<svg width="58" height="58" viewBox="0 0 58 58" fill="none" xmlns="http://www.w3.org/2000/svg">
<path d="M50.4654 0.00146484C48.2305 0.00146484 46.4121 1.81989 46.4121 4.0548C46.4121 6.2897 48.2305 8.10813 50.4654 8.10813C52.7003 8.10813 54.5188 6.2897 54.5188 4.0548C54.5188 1.81989 52.7003 0.00146484 50.4654 0.00146484ZM50.4654 6.08146C49.3477 6.08146 48.4388 5.1725 48.4388 4.0548C48.4388 2.93709 49.3477 2.02813 50.4654 2.02813C51.5831 2.02813 52.4921 2.93709 52.4921 4.0548C52.4921 5.1725 51.5831 6.08146 50.4654 6.08146Z" fill="#2196F3"/>
<path d="M35.7726 3.68216C36.4062 3.68216 36.9202 3.1684 36.9202 2.53481C36.9202 1.90097 36.4064 1.38721 35.7726 1.38721C35.1388 1.38721 34.625 1.90097 34.625 2.53481C34.6253 3.1684 35.139 3.68216 35.7726 3.68216Z" fill="#2196F3"/>
<path d="M56.0392 16.5874C55.4056 16.5874 54.8916 17.1012 54.8916 17.735C54.8916 18.3686 55.4054 18.8824 56.0392 18.8824C56.673 18.8824 57.1868 18.3686 57.1868 17.735C57.1868 17.1012 56.673 16.5874 56.0392 16.5874Z" fill="#2196F3"/>
<path d="M24.0435 25.6958L19.9131 28.1741V33.1306L24.0435 35.6088L28.174 33.1306V28.1741L24.0435 25.6958Z" fill="#2196F3"/>
<path d="M46.9212 16.3519L24.6279 3.41569C24.3132 3.23253 23.9254 3.23253 23.6105 3.41569L1.31714 16.3519C1.00503 16.533 0.8125 16.8669 0.8125 17.2282V43.5749C0.8125 43.9305 0.998953 44.2601 1.30346 44.4433L23.5968 57.8537C23.7577 57.9503 23.9388 57.9986 24.1192 57.9986C24.2995 57.9986 24.4809 57.9503 24.6415 57.8537L46.9349 44.4433C47.2391 44.2601 47.4258 43.9308 47.4258 43.5749V17.2282C47.4258 16.8669 47.2333 16.533 46.9212 16.3519ZM24.1192 5.46364L44.4074 17.236L30.9934 25.1626L25.1325 21.7155V16.2149C25.1325 15.6552 24.6788 15.2015 24.1192 15.2015C23.5596 15.2015 23.1058 15.6552 23.1058 16.2149V21.7155L16.5123 25.5938C16.2025 25.7759 16.0125 26.1078 16.0125 26.467V34.0151L2.83917 41.7992V17.8116L24.1192 5.46364ZM24.1192 37.8067L18.0392 34.2314V27.0466L24.1192 23.4708L30.1992 27.0466V34.2314L24.1192 37.8067ZM24.1192 55.8028L3.80462 43.5827L16.8429 35.8783L23.1061 39.5616V44.5882C23.1061 45.1478 23.5598 45.6015 24.1194 45.6015C24.679 45.6015 25.1328 45.1478 25.1328 44.5882V39.5616L31.7263 35.6838C32.0361 35.5016 32.2261 35.1698 32.2261 34.8105V26.7882L45.3994 19.0038V43.0018L24.1192 55.8028Z" fill="#E4EAEC"/>
</svg>
